HIERARCHY
ROOT hip
{
  OFFSET 0 0 0
  CHANNELS 6 Xposition Yposition Zposition Zrotation Yrotation Xrotation
  JOINT abdomen
  {
    OFFSET 0 20.6881 -0.73152
    CHANNELS 3 Zrotation Xrotation Yrotation
    JOINT chest
    {
      OFFSET 0 11.7043 -0.48768
      CHANNELS 3 Zrotation Xrotation Yrotation
      JOINT neck
      {
        OFFSET 0 22.1894 -2.19456
        CHANNELS 3 Zrotation Xrotation Yrotation
        JOINT head
        {
          OFFSET -0.24384 7.07133 1.2192
          CHANNELS 3 Zrotation Xrotation Yrotation
          JOINT leftEye
          {
            OFFSET 4.14528 8.04674 8.04672
            CHANNELS 3 Zrotation Xrotation Yrotation
            End Site
            {
              OFFSET 1 0 0
            }
          }
          JOINT rightEye
          {
            OFFSET -3.6576 8.04674 8.04672
            CHANNELS 3 Zrotation Xrotation Yrotation
            End Site
            {
              OFFSET 1 0 0
            }
          }
        }
      }
      JOINT rCollar
      {
        OFFSET -2.68224 19.2634 -4.8768
        CHANNELS 3 Zrotation Xrotation Yrotation
        JOINT rShldr
        {
          OFFSET -8.77824 -1.95073 1.46304
          CHANNELS 3 Zrotation Xrotation Yrotation
          JOINT rForeArm
          {
            OFFSET -28.1742 -1.7115 0.48768
            CHANNELS 3 Zrotation Xrotation Yrotation
            JOINT rHand
            {
              OFFSET -22.5879 0.773209 7.07136
              CHANNELS 3 Zrotation Xrotation Yrotation
              JOINT rThumb1
              {
                OFFSET -1.2192 -0.487915 3.41376
                CHANNELS 3 Zrotation Xrotation Yrotation
                JOINT rThumb2
                {
                  OFFSET -3.37035 -0.52449 3.41376
                  CHANNELS 3 Zrotation Xrotation Yrotation
                  End Site
                  {
                    OFFSET -1.78271 -1.18214 1.43049
                  }
                }
              }
              JOINT rIndex1
              {
                OFFSET -7.75947 0.938293 5.60832
                CHANNELS 3 Zrotation Xrotation Yrotation
                JOINT rIndex2
                {
                  OFFSET -2.54057 -0.884171 1.56538
                  CHANNELS 3 Zrotation Xrotation Yrotation
                  End Site
                  {
                    OFFSET -1.62519 -0.234802 1.16502
                  }
                }
              }
              JOINT rMid1
              {
                OFFSET -8.24714 1.18213 3.41376
                CHANNELS 3 Zrotation Xrotation Yrotation
                JOINT rMid2
                {
                  OFFSET -3.10165 -0.590103 1.0647
                  CHANNELS 3 Zrotation Xrotation Yrotation
                  End Site
                  {
                    OFFSET -2.48547 -0.328903 0.83742
                  }
                }
              }
              JOINT rRing1
              {
                OFFSET -8.82822 0.546677 1.51678
                CHANNELS 3 Zrotation Xrotation Yrotation
                JOINT rRing2
                {
                  OFFSET -2.60934 -0.819778 -0.0198488
                  CHANNELS 3 Zrotation Xrotation Yrotation
                  End Site
                  {
                    OFFSET -2.33842 -0.294052 0.168128
                  }
                }
              }
              JOINT rPinky1
              {
                OFFSET -8.27202 -0.0477905 -0.4584
                CHANNELS 3 Zrotation Xrotation Yrotation
                JOINT rPinky2
                {
                  OFFSET -1.82734 -0.647385 -0.700984
                  CHANNELS 3 Zrotation Xrotation Yrotation
                  End Site
                  {
                    OFFSET -1.69225 -0.51767 -0.607171
                  }
                }
              }
            }
          }
        }
      }
      JOINT lCollar
      {
        OFFSET 2.68224 19.2634 -4.8768
        CHANNELS 3 Zrotation Xrotation Yrotation
        JOINT lShldr
        {
          OFFSET 8.77824 -1.95073 1.46304
          CHANNELS 3 Zrotation Xrotation Yrotation
          JOINT lForeArm
          {
            OFFSET 28.1742 -1.7115 0.48768
            CHANNELS 3 Zrotation Xrotation Yrotation
            JOINT lHand
            {
              OFFSET 22.5879 0.773209 7.07136
              CHANNELS 3 Zrotation Xrotation Yrotation
              JOINT lThumb1
              {
                OFFSET 1.2192 -0.487915 3.41376
                CHANNELS 3 Zrotation Xrotation Yrotation
                JOINT lThumb2
                {
                  OFFSET 3.37035 -0.52449 3.41376
                  CHANNELS 3 Zrotation Xrotation Yrotation
                  End Site
                  {
                    OFFSET 1.78271 -1.18214 1.43049
                  }
                }
              }
              JOINT lIndex1
              {
                OFFSET 7.75947 0.938293 5.60832
                CHANNELS 3 Zrotation Xrotation Yrotation
                JOINT lIndex2
                {
                  OFFSET 2.54057 -0.884171 1.56538
                  CHANNELS 3 Zrotation Xrotation Yrotation
                  End Site
                  {
                    OFFSET 1.62519 -0.234802 1.16502
                  }
                }
              }
              JOINT lMid1
              {
                OFFSET 8.24714 1.18213 3.41376
                CHANNELS 3 Zrotation Xrotation Yrotation
                JOINT lMid2
                {
                  OFFSET 3.10165 -0.590103 1.0647
                  CHANNELS 3 Zrotation Xrotation Yrotation
                  End Site
                  {
                    OFFSET 2.48547 -0.328903 0.83742
                  }
                }
              }
              JOINT lRing1
              {
                OFFSET 8.82822 0.546677 1.51678
                CHANNELS 3 Zrotation Xrotation Yrotation
                JOINT lRing2
                {
                  OFFSET 2.60934 -0.819778 -0.0198488
                  CHANNELS 3 Zrotation Xrotation Yrotation
                  End Site
                  {
                    OFFSET 2.33842 -0.294052 0.168128
                  }
                }
              }
              JOINT lPinky1
              {
                OFFSET 8.27202 -0.0477905 -0.4584
                CHANNELS 3 Zrotation Xrotation Yrotation
                JOINT lPinky2
                {
                  OFFSET 1.82734 -0.647385 -0.700984
                  CHANNELS 3 Zrotation Xrotation Yrotation
                  End Site
                  {
                    OFFSET 1.69225 -0.51767 -0.607171
                  }
                }
              }
            }
          }
        }
      }
    }
  }
  JOINT rButtock
  {
    OFFSET -8.77824 4.35084 1.2192
    CHANNELS 3 Zrotation Xrotation Yrotation
    JOINT rThigh
    {
      OFFSET 0 -1.70687 -2.19456
      CHANNELS 3 Zrotation Xrotation Yrotation
      JOINT rShin
      {
        OFFSET 0 -36.8199 0.73152
        CHANNELS 3 Zrotation Xrotation Yrotation
        JOINT rFoot
        {
          OFFSET 0.73152 -45.1104 -5.12064
          CHANNELS 3 Zrotation Xrotation Yrotation
          End Site
          {
            OFFSET -1.1221 -3.69964 12.103
          }
        }
      }
    }
  }
  JOINT lButtock
  {
    OFFSET 8.77824 4.35084 1.2192
    CHANNELS 3 Zrotation Xrotation Yrotation
    JOINT lThigh
    {
      OFFSET 0 -1.70687 -2.19456
      CHANNELS 3 Zrotation Xrotation Yrotation
      JOINT lShin
      {
        OFFSET 0 -36.8199 0.73152
        CHANNELS 3 Zrotation Xrotation Yrotation
        JOINT lFoot
        {
          OFFSET -0.73152 -45.1104 -5.12064
          CHANNELS 3 Zrotation Xrotation Yrotation
          End Site
          {
            OFFSET 1.1221 -3.69964 12.103
          }
        }
      }
    }
  }
}
MOTION
Frames:	9
Frame Time:	0.00833333
228.219 84.7658 44.4143 0.0 0.0 0.0 -0.385197 -0.00168813 -0.0109959 -0.106234 -0.00256712 -0.0184049 5.88932e-15 -1.59028e-15 1.36664e-16 1.77446e-14 3.18055e-15 3.66509e-16 -0.0 0.0 0.0 -0.0 0.0 0.0 2.88122e-15 1.32005e-17 1.98785e-16 6.40014e-14 -1.36664e-16 2.5842e-15 1.06852e-12 -3.13086e-13 9.54166e-15 1.2214e-11 3.57017e-13 2.67167e-13 2.88129e-11 9.81901e-14 6.20208e-13 4.97455e-11 1.68569e-13 1.06231e-12 2.88162e-11 9.81996e-14 6.13847e-13 7.73091 5.47488 0.417314 2.88129e-11 9.76033e-14 6.26569e-13 2.90554 0.965183 0.102902 2.88216e-11 9.81996e-14 6.21003e-13 10.2786 0.731801 0.0259123 2.88037e-11 1.01778e-13 6.23389e-13 2.22167 -0.733487 -0.20892 2.88373e-15 1.2424e-17 -9.93923e-17 6.08776e-14 1.55301e-16 7.95139e-16 1.06429e-12 3.272e-13 1.90833e-14 1.22188e-11 -2.83815e-13 2.73528e-13 2.8816e-11 9.62433e-14 6.23389e-13 4.97749e-11 1.65389e-13 1.08139e-12 2.88107e-11 9.85972e-14 6.42472e-13 -7.73091 5.47488 -0.417314 2.88178e-11 9.5516e-14 6.26569e-13 -2.90554 0.965183 -0.102902 2.88074e-11 9.651e-14 6.25774e-13 -10.2786 0.731801 -0.0259123 2.88226e-11 9.97899e-14 6.17028e-13 -2.22167 -0.733487 0.20892 -2.03217e-16 0.0 -3.88251e-19 0.221657 -2.58356 -0.0280811 -0.00748963 -0.872632 -0.0651405 -0.513118 3.45577 0.129348 2.03217e-16 0.0 3.88251e-19 -0.807768 -4.07085 0.065391 0.00325571 1.82139 0.0244315 0.517704 2.24911 -0.105179
224.485 83.4555 37.3074 -126.424 -84.0206 135.176 1.70862 -2.26727 -0.523557 0.34481 0.411012 -0.240842 -2.39775 -0.214825 -1.60866 3.75965 -4.01629 -2.02511 -0.0 0.0 0.0 -0.0 0.0 0.0 -4.26622e-15 4.36754e-13 -3.74383e-14 20.1279 -6.40905 -2.54941 -2.81704 -1.08863 4.58588 0.0247895 3.4954 0.487955 -6.1212e-10 2.67813e-09 -3.17609e-09 -1.09056e-09 4.63026e-09 -5.48098e-09 -6.12116e-10 2.67813e-09 -3.1761e-09 7.73091 5.47488 0.417314 -6.12121e-10 2.67813e-09 -3.17609e-09 2.90554 0.965183 0.102902 -6.12114e-10 2.67813e-09 -3.1761e-09 10.2786 0.731801 0.0259123 -6.12128e-10 2.67814e-09 -3.17609e-09 2.22167 -0.733487 -0.20892 -4.25773e-15 4.36753e-13 -3.76786e-14 -22.3137 -4.9298 1.88059 2.31595 -0.836947 -3.8175 -0.285117 11.8936 -1.54445 -2.16126e-09 2.44915e-09 2.19492e-09 -3.649e-09 4.23831e-09 3.85633e-09 -2.16126e-09 2.44915e-09 2.19494e-09 -7.73091 5.47488 -0.417314 -2.16125e-09 2.44915e-09 2.19492e-09 -2.90554 0.965183 -0.102902 -2.16127e-09 2.44915e-09 2.19493e-09 -10.2786 0.731801 -0.0259123 -2.16125e-09 2.44915e-09 2.19492e-09 -2.22167 -0.733487 0.20892 -2.03217e-16 0.0 -3.88251e-19 1.63641 -5.37807 1.32991 -0.00734879 3.08872 0.0053966 -0.692293 1.48192 -3.57103 2.03217e-16 0.0 3.88251e-19 1.37624 -6.33289 -0.833533 -0.00172912 5.17296 -0.0349197 0.557539 -0.270769 1.12803
224.444 83.4529 37.3169 -125.324 -84.0993 134.084 3.88116 -4.66248 -1.06299 0.81698 0.855296 -0.474537 -4.94314 -0.447693 -3.31561 7.42629 -8.24673 -4.21097 -0.0 0.0 0.0 -0.0 0.0 0.0 -9.99363e-15 8.98501e-13 -7.88057e-14 40.7832 -13.1172 -5.33097 -5.60589 -2.21605 9.43857 -0.0142732 7.20246 1.01166 -1.35247e-09 5.70431e-09 -6.74873e-09 -2.40667e-09 9.86206e-09 -1.1646e-08 -1.35247e-09 5.7043e-09 -6.74874e-09 7.73091 5.47488 0.417314 -1.35247e-09 5.70431e-09 -6.74873e-09 2.90554 0.965183 0.102902 -1.35247e-09 5.70431e-09 -6.74873e-09 10.2786 0.731801 0.0259123 -1.35248e-09 5.70432e-09 -6.74873e-09 2.22167 -0.733487 -0.20892 -9.97867e-15 8.98499e-13 -7.89827e-14 -45.5363 -10.0901 3.89803 4.64346 -1.70944 -7.85608 0.172585 24.4241 -3.41341 -4.64241e-09 5.20033e-09 4.6463e-09 -7.84052e-09 8.99999e-09 8.16444e-09 -4.64241e-09 5.20033e-09 4.64631e-09 -7.73091 5.47488 -0.417314 -4.6424e-09 5.20032e-09 4.6463e-09 -2.90554 0.965183 -0.102902 -4.64242e-09 5.20033e-09 4.64631e-09 -10.2786 0.731801 -0.0259123 -4.6424e-09 5.20033e-09 4.64629e-09 -2.22167 -0.733487 0.20892 -2.03217e-16 0.0 -3.88251e-19 3.281 -8.32027 2.78816 -0.01783 7.26994 0.0804256 -1.15762 -0.589525 -7.48224 2.03217e-16 0.0 3.88251e-19 3.60892 -8.72228 -1.79235 0.000621907 8.72067 -0.0985585 0.718148 -2.93235 2.43854
224.422 83.4486 37.329 -125.28 -84.1554 134.081 5.77392 -6.79623 -1.5584 1.25653 1.23809 -0.685857 -7.22939 -0.642445 -4.82626 10.4129 -11.988 -6.19605 -0.0 0.0 0.0 -0.0 0.0 0.0 -1.85611e-14 1.31023e-12 -1.12712e-13 58.594 -19.0704 -8.0446 -7.93321 -3.18232 13.7768 -0.106801 10.4831 1.48595 -1.89399e-09 8.0342e-09 -9.52953e-09 -3.37117e-09 1.38905e-08 -1.64451e-08 -1.89398e-09 8.03419e-09 -9.52954e-09 7.73091 5.47488 0.417314 -1.89399e-09 8.03421e-09 -9.52952e-09 2.90554 0.965183 0.102902 -1.89398e-09 8.03421e-09 -9.52953e-09 10.2786 0.731801 0.0259123 -1.89399e-09 8.03421e-09 -9.52951e-09 2.22167 -0.733487 -0.20892 -1.85406e-14 1.31023e-12 -1.12837e-13 -65.9441 -14.7246 5.8124 6.61548 -2.4663 -11.462 1.43976 35.5648 -5.57655 -6.5414e-09 7.34727e-09 6.58353e-09 -1.10466e-08 1.27146e-08 1.15668e-08 -6.54141e-09 7.34727e-09 6.58353e-09 -7.73091 5.47488 -0.417314 -6.54139e-09 7.34726e-09 6.58352e-09 -2.90554 0.965183 -0.102902 -6.54141e-09 7.34727e-09 6.58353e-09 -10.2786 0.731801 -0.0259123 -6.5414e-09 7.34727e-09 6.58351e-09 -2.22167 -0.733487 0.20892 -2.03217e-16 0.0 -3.88251e-19 4.86961 -10.944 4.10301 -0.0366727 11.0114 0.149179 -1.81142 -2.41223 -10.9776 2.03217e-16 0.0 3.88251e-19 5.52781 -10.8475 -2.66341 0.00951423 11.8761 -0.156521 0.963353 -5.30021 3.60972
224.41 83.4431 37.3471 -125.138 -84.1651 133.986 7.05194 -8.27834 -1.93469 1.60757 1.46724 -0.841093 -8.84037 -0.744011 -5.84589 12.3243 -14.5659 -7.56254 -0.0 0.0 0.0 -0.0 0.0 0.0 -3.42287e-14 1.59694e-12 -1.27968e-13 70.5465 -23.2771 -10.2269 -9.46976 -3.82524 16.8107 -0.202025 12.7009 1.81512 -1.93841e-09 8.62338e-09 -1.03307e-08 -3.45663e-09 1.49103e-08 -1.7829e-08 -1.93841e-09 8.62337e-09 -1.03307e-08 7.73091 5.47488 0.417314 -1.93842e-09 8.62339e-09 -1.03307e-08 2.90554 0.965183 0.102902 -1.93841e-09 8.62339e-09 -1.03307e-08 10.2786 0.731801 0.0259123 -1.93842e-09 8.62339e-09 -1.03307e-08 2.22167 -0.733487 -0.20892 -3.42052e-14 1.59694e-12 -1.28067e-13 -80.0004 -18.1023 7.31615 7.93246 -2.97652 -13.9774 3.03145 43.3369 -7.62045 -6.98502e-09 7.98362e-09 7.23535e-09 -1.17889e-08 1.38116e-08 1.27049e-08 -6.98502e-09 7.98362e-09 7.23536e-09 -7.73091 5.47488 -0.417314 -6.98501e-09 7.98361e-09 7.23535e-09 -2.90554 0.965183 -0.102902 -6.98503e-09 7.98362e-09 7.23535e-09 -10.2786 0.731801 -0.0259123 -6.98501e-09 7.98362e-09 7.23534e-09 -2.22167 -0.733487 0.20892 -2.03217e-16 0.0 -3.88251e-19 6.03001 -12.7928 5.00924 -0.0555967 13.6534 0.199376 -2.40307 -3.67478 -13.4165 2.03217e-16 0.0 3.88251e-19 6.81555 -12.3207 -3.28828 0.0195727 14.0508 -0.19761 1.188 -6.94469 4.41459
224.403 83.4401 37.3612 -125.075 -84.168 133.956 7.50758 -8.85358 -2.14734 1.8473 1.45818 -0.920669 -9.50832 -0.690894 -6.17253 13.0225 -15.5532 -7.96874 -0.0 0.0 0.0 -0.0 0.0 0.0 -6.79462e-14 1.76072e-12 -1.14765e-13 74.8812 -25.1399 -11.4324 -10.0566 -4.07109 18.0088 -0.241263 13.4308 1.9256 -1.12234e-09 6.36622e-09 -7.94514e-09 -2.02295e-09 1.10115e-08 -1.3716e-08 -1.12234e-09 6.36621e-09 -7.94516e-09 7.73091 5.47488 0.417314 -1.12234e-09 6.36623e-09 -7.94515e-09 2.90554 0.965183 0.102902 -1.12234e-09 6.36623e-09 -7.94515e-09 10.2786 0.731801 0.0259123 -1.12235e-09 6.36623e-09 -7.94513e-09 2.22167 -0.733487 -0.20892 -6.79163e-14 1.76072e-12 -1.14875e-13 -85.4922 -19.726 8.17927 8.44302 -3.17555 -14.9769 3.89267 46.4268 -8.62623 -5.02739e-09 6.20025e-09 5.87424e-09 -8.46253e-09 1.07129e-08 1.0293e-08 -5.02739e-09 6.20025e-09 5.87425e-09 -7.73091 5.47488 -0.417314 -5.02738e-09 6.20024e-09 5.87424e-09 -2.90554 0.965183 -0.102902 -5.0274e-09 6.20025e-09 5.87424e-09 -10.2786 0.731801 -0.0259123 -5.02739e-09 6.20024e-09 5.87423e-09 -2.22167 -0.733487 0.20892 -2.03217e-16 0.0 -3.88251e-19 6.46129 -13.5712 5.31112 -0.0650026 14.7555 0.221267 -2.67322 -4.20407 -14.3541 2.03217e-16 0.0 3.88251e-19 7.29145 -12.8887 -3.55022 0.0242889 14.855 -0.21324 1.28012 -7.58496 4.69156
224.401 83.4367 37.3797 -125.007 -84.2166 133.922 7.386 -8.78135 -2.24061 2.00601 1.28009 -0.946043 -9.50091 -0.528721 -6.00444 12.9175 -15.4154 -7.66676 -0.0 0.0 0.0 -0.0 0.0 0.0 -1.1417e-13 1.83422e-12 -8.13464e-14 73.9542 -25.3664 -11.8444 -10.0006 -4.04918 17.8924 -0.227685 13.0986 1.87589 3.00537e-10 2.09546e-09 -3.30312e-09 4.82099e-10 3.63286e-09 -5.71066e-09 3.0054e-10 2.09546e-09 -3.30314e-09 7.73091 5.47488 0.417314 3.00534e-10 2.09546e-09 -3.30313e-09 2.90554 0.965183 0.102902 3.00536e-10 2.09546e-09 -3.30312e-09 10.2786 0.731801 0.0259123 3.00533e-10 2.09546e-09 -3.30311e-09 2.22167 -0.733487 -0.20892 -1.14132e-13 1.83423e-12 -8.14924e-14 -84.9582 -20.1132 8.54335 8.40024 -3.16055 -14.8911 3.81993 46.2145 -8.54846 -1.37191e-09 2.70301e-09 3.08548e-09 -2.2594e-09 4.6427e-09 5.36339e-09 -1.37191e-09 2.70301e-09 3.08548e-09 -7.73091 5.47488 -0.417314 -1.3719e-09 2.703e-09 3.08548e-09 -2.90554 0.965183 -0.102902 -1.37191e-09 2.70301e-09 3.08548e-09 -10.2786 0.731801 -0.0259123 -1.3719e-09 2.70301e-09 3.08547e-09 -2.22167 -0.733487 0.20892 -2.03217e-16 0.0 -3.88251e-19 6.34106 -13.5888 5.17222 -0.0651835 14.7577 0.222185 -2.65879 -4.22541 -14.2132 2.03217e-16 0.0 3.88251e-19 7.20406 -12.8117 -3.54849 0.0235684 14.6802 -0.210168 1.25417 -7.51025 4.58701
224.398 83.4326 37.4016 -124.865 -84.2922 133.806 7.03527 -8.44377 -2.27067 2.10722 1.07144 -0.945021 -9.20304 -0.363711 -5.64714 12.4769 -14.8322 -7.10216 -0.0 0.0 0.0 -0.0 0.0 0.0 -1.52422e-13 1.7882e-12 -4.35952e-14 71.0082 -24.9538 -11.8642 -9.6859 -3.91921 17.2467 -0.194904 12.3443 1.76314 1.70282e-09 -2.32581e-09 1.57705e-09 2.95411e-09 -4.0067e-09 2.70635e-09 1.70282e-09 -2.32581e-09 1.57703e-09 7.73091 5.47488 0.417314 1.70281e-09 -2.32581e-09 1.57704e-09 2.90554 0.965183 0.102902 1.70281e-09 -2.32581e-09 1.57705e-09 10.2786 0.731801 0.0259123 1.70281e-09 -2.32581e-09 1.57707e-09 2.22167 -0.733487 -0.20892 -1.52385e-13 1.78822e-12 -4.37913e-14 -82.0255 -20.068 8.62725 8.12161 -3.05244 -14.344 3.38787 44.7893 -8.06154 2.38078e-09 -9.91899e-10 6.70702e-11 4.10309e-09 -1.76675e-09 3.48085e-11 2.38078e-09 -9.91899e-10 6.70808e-11 -7.73091 5.47488 -0.417314 2.38078e-09 -9.91905e-10 6.70742e-11 -2.90554 0.965183 -0.102902 2.38078e-09 -9.91904e-10 6.70755e-11 -10.2786 0.731801 -0.0259123 2.38079e-09 -9.91905e-10 6.70621e-11 -2.22167 -0.733487 0.20892 -2.03217e-16 0.0 -3.88251e-19 5.99858 -13.3016 4.85713 -0.0615629 14.3211 0.214675 -2.53 -4.04383 -13.6453 2.03217e-16 0.0 3.88251e-19 6.88817 -12.4729 -3.44445 0.0207381 14.1098 -0.199628 1.18218 -7.14897 4.33023
224.397 83.4279 37.4164 -124.43 -84.3433 133.396 6.80009 -8.22277 -2.29423 2.17439 0.970715 -0.945384 -8.99533 -0.302548 -5.40598 12.1772 -14.486 -6.71821 -0.0 0.0 0.0 -0.0 0.0 0.0 -1.62221e-13 1.59345e-12 -1.73937e-14 69.2272 -24.8841 -11.9237 -9.49476 -3.83988 16.8573 -0.174127 11.8083 1.68369 2.45709e-09 -5.03447e-09 4.67705e-09 4.28867e-09 -8.68845e-09 8.05449e-09 2.45709e-09 -5.03447e-09 4.67703e-09 7.73091 5.47488 0.417314 2.45709e-09 -5.03448e-09 4.67705e-09 2.90554 0.965183 0.102902 2.45709e-09 -5.03448e-09 4.67705e-09 10.2786 0.731801 0.0259123 2.45708e-09 -5.03447e-09 4.67707e-09 2.22167 -0.733487 -0.20892 -1.62207e-13 1.59347e-12 -1.76421e-14 -80.2846 -20.3876 8.66615 7.92278 -2.97144 -13.9596 3.20104 44.2373 -7.86551 4.63003e-09 -3.3683e-09 -1.98297e-09 7.90754e-09 -5.88306e-09 -3.57405e-09 4.63002e-09 -3.3683e-09 -1.98295e-09 -7.73091 5.47488 -0.417314 4.63003e-09 -3.3683e-09 -1.98296e-09 -2.90554 0.965183 -0.102902 4.63003e-09 -3.3683e-09 -1.98296e-09 -10.2786 0.731801 -0.0259123 4.63003e-09 -3.3683e-09 -1.98297e-09 -2.22167 -0.733487 0.20892 -2.03217e-16 0.0 -3.88251e-19 5.7632 -13.1655 4.63086 -0.0599085 14.1068 0.211397 -2.46192 -3.96313 -13.303 2.03217e-16 0.0 3.88251e-19 6.67731 -12.2552 -3.3998 0.0190931 13.7273 -0.192841 1.13529 -6.92971 4.15049
